<svg xmlns="http://www.w3.org/2000/svg" viewBox="0 0 48 48" role="img" aria-labelledby="title"><title>Microsoft Power Automate</title><defs><linearGradient id="flowDark" x1="6" y1="8" x2="30" y2="31" gradientUnits="userSpaceOnUse"><stop stop-color="#0B4BC4"/><stop offset="1" stop-color="#0D2B8C"/></linearGradient><linearGradient id="flowLight" x1="19" y1="14" x2="43" y2="42" gradientUnits="userSpaceOnUse"><stop stop-color="#2A87F5"/><stop offset="1" stop-color="#70C4FA"/></linearGradient></defs><path d="M5.8 7.2A4 4 0 0 1 9 5.5h18.5a4 4 0 0 1 3.1 1.5l6.1 7.4-17.4 17.3L5.8 17.9a4 4 0 0 1 0-10.7Z" fill="url(#flowDark)"/><path d="M36.7 14.4 44 23a4 4 0 0 1 0 5.2L30.5 41.7a4 4 0 0 1-3 1.3H8.8a4 4 0 0 1-3-6.6l13.5-16.2 8.3 8.3 9.1-14.1Z" fill="url(#flowLight)"/><path d="m19.3 20.2 8.3 8.3-8.3 8.3-8.3-8.3 8.3-8.3Z" fill="#2F72DD"/></svg>
