<svg xmlns="http://www.w3.org/2000/svg" viewBox="0 0 48 48" role="img" aria-labelledby="title"><title>Microsoft Power Apps</title><defs><linearGradient id="powerAppsDark" x1="10" y1="6" x2="34" y2="42" gradientUnits="userSpaceOnUse"><stop stop-color="#6B1689"/><stop offset="1" stop-color="#A72A9B"/></linearGradient><linearGradient id="powerAppsLight" x1="26" y1="10" x2="43" y2="39" gradientUnits="userSpaceOnUse"><stop stop-color="#E18AD6"/><stop offset="1" stop-color="#C33CB2"/></linearGradient></defs><path d="M20.7 6.2a4 4 0 0 1 5.7 0l13.1 13.1a4 4 0 0 1 0 5.7L26.4 38.1a4 4 0 0 1-5.7 0L7.6 25a4 4 0 0 1 0-5.7L20.7 6.2Z" fill="url(#powerAppsDark)"/><path d="M25.6 10.8 39.5 24.7a4 4 0 0 1 0 5.7L31.6 38a4 4 0 0 1-5.7 0l-6.2-6.2a4 4 0 0 1 0-5.7l8.2-8.2-5.1-5.1 2.8-2Z" fill="url(#powerAppsLight)"/><path d="m20.6 17.8 7.3 7.3-8.2 8.2a4 4 0 0 1-5.7 0l-6.4-6.4a4 4 0 0 1 0-5.7l4.6-4.6 3.5 3.5a3.5 3.5 0 0 0 4.9 0Z" fill="#8B1D91"/></svg>
